<svg xmlns="http://www.w3.org/2000/svg" version="1.1" width="600px" height="600px" xlink="http://www.w3.org/1999/xlink" style="overflow:hidden!important;"><g id="svga-group-wrapper" transform="scale(3 3)"><g id="svga-group-backs-single"><path id="SvgjsPath5133" d="M225,225H-25V-25h250V225z" fill="#774f38" stroke-width="none" opacity="1" stroke="none"></path><path id="SvgjsPath5134" d="M225,66.045V46.523c-8.393-7.17-16.444-14.676-24.006-22.532C206.423,16.09,215.705,4.264,225,0.533v-16.039c-3.896,1.01-7.948,3.157-10.891,4.849c-9.592,5.514-16.968,14.41-23.396,23.297C180.981,1.161,172.431-11.375,166.43-25h-16.256c7.101,18.589,18.696,35.418,31.924,50.498c-3.762,6.007-7.353,12.13-11.097,18.132c-6.771,10.854-13.008,21.979-18.061,33.713c-1.74-0.122-3.482-0.236-5.227-0.348c-0.102-11.296-1.301-22.637-2.591-33.427C142.364,20.495,137.825-2.268,133.128-25h-15.287c3.512,16.925,6.991,33.854,9.757,50.925c2.627,16.216,5.104,33.229,5.117,49.989c-17.066-1.536-33.684-4.704-47.991-15.619c-22.846-17.429-21.9-26.78-25.009-40.538C68.462,4.662,80.021-9.181,83.404-25H67.848c-2.288,7.421-6.745,14.566-10.568,20.732c-1.766,2.849-3.54,5.708-5.319,8.565C41.416-4.602,16.985-1.963,3.134-5.856c-8.089-2.274-17.358-7.185-25.183-11.213c-0.973-0.501-1.96-1.017-2.951-1.55v16.811c7.296,3.502,14.678,6.469,20.881,9.151c12.571,5.436,27.6,2.613,42.814,7.009c2.774,0.801,3.976,1.791,4.725,3.446C37.528,26.922,30.89,33.68,18.638,36.037C6.717,38.331-9.568,36.45-25,35.374V50.51c14.17,0.911,30.442,2.151,42.378,0.754c12.875-1.506,23.256-6.821,30.822-14.903c3.926,13.052,9.926,23.987,32.905,39.741c15.079,10.337,32.932,13.381,50.891,14.876c-2.058,20.178-10.428,37.32-32.693,54.405c-10.407,7.985-21.317,14.728-34.237,24.035c-2.063-0.633-4.131-1.247-6.204-1.832c-14.62-4.125-46.417-6.59-53.1-6.965c8.508-6.75,17.07-13.123,22.152-23.144c11.073-21.834,0.773-48.529-17.324-59.654C2.211,72.673-11.466,69.181-25,64.823v15.465c6.097,2.013,12.208,3.99,18.242,6.175c3.371,1.221,7.316,2.72,10.326,4.67c-1.389-0.644,14.647,9.087,13.954,28.72c-0.661,18.694-21.119,26.841-34.167,41.017c-2.763,0.267-5.568,0.658-8.354,1.198V225h8.315c-2.877-17.495-2.37-34.53,8.331-50.064c8.69-0.111,43.984,2.377,59.317,6.059C37.81,193.899,34.342,209.025,34.122,225H48.77c0.262-8.053,1.59-15.874,5.038-23.062c3.074-6.407,8.375-11.441,14.043-15.887c6.325,2.192,12.58,4.603,18.827,6.916c21.501,7.963,39.663-16.236,68.072-27.625c0.472-0.189,0.954-0.367,1.429-0.554c10.135,21.642,24.926,41.005,40.126,60.211H215.3c-16.396-20.788-33.895-42.817-44.951-65.021c25.817-7.328,33.013-2.973,40.158,3.964c5.458,5.298,10.602,12.362,14.493,20.076v-26.446c-0.996-1.161-2.006-2.287-3.028-3.367c-7.024-7.418-15.717-12.491-26.009-13.126c-10.466-0.645-21.483,2.115-31.569,5.142c-7.333-20.176-7.046-36.563-1.767-53.077c15.35,1.577,40.417,6.625,48.157,20.097c5.229,9.103,8.712,18.285,14.216,28.972v-34.389c-1.05-1.908-2.147-3.734-3.344-5.472c-10.035-14.583-35.667-21.38-53.283-23.575c5.96-12.576,12.812-22.861,24.354-41.835C202.896,47.331,213.716,56.986,225,66.045z M147.094,92c0.152,0.009,0.306,0.019,0.459,0.028c-0.258,0.887-0.503,1.777-0.737,2.671C146.924,93.802,147.006,92.901,147.094,92z M109.519,173.981c-4.553,2.729-9.252,6.184-14.766,5.801c-3.813-0.264-8.413-2.824-12.214-4.384c23.267-16.107,52.827-33.469,61.801-67.581c-1.749,15.194,0.747,28.782,6.11,43.354C135.916,157.305,124.394,165.065,109.519,173.981z" fill="#683e26" stroke-width="none" opacity="1" stroke="none"></path></g><g id="svga-group-subwrapper" ><g id="svga-group-hair-back" ><path id="SvgjsPath5146" d="M160.527 108.896c-0.826 32.13-25.267 102.589-58.469 102.589 -33.201 0-60.969-69.5-61.767-102.589 -1.15-47.67 26.917-86.339 60.118-86.339C133.611 22.558 161.753 61.229 160.527 108.896z" fill="#986e43" stroke-width="none" opacity="1" stroke="none"></path></g><g id="svga-group-humanbody-single"><path id="SvgjsPath4987" d="M190.858 199.866c-6.008-10.158-13.474-11.973-19.628-13.936 -6.323-2.016-19.346-3.178-26.449-4.6 -6.86-1.373-23.153-5.789-23.339-13.488 -0.192-8.066 4.291-40.09 4.291-40.09H74.005c0 0 4.487 32.023 4.294 40.09 -0.184 7.699-16.48 12.115-23.341 13.488 -7.104 1.422-20.125 2.584-26.448 4.6 -6.156 1.963-13.624 3.777-19.632 13.936 -3.644 6.16-6.008 16.133-6.008 27.133h194C196.869 215.999 194.509 206.026 190.858 199.866z" fill="#f0c7b1" stroke-width="none" opacity="1" stroke="none"></path><path id="SvgjsPath4988" d="M121.442 167.843c2.495 10.929 18.165 13.698 26.293 15.325 21.909 4.379 33.772 5.134 42.297 19.539 2.903 4.916 5.459 15.864 5.962 24.153 1.835 0.291 0.531-17.432-5.136-26.994 -9.742-16.472-29.089-15.135-46.077-18.535C137.921 179.958 121.628 175.542 121.442 167.843L121.442 167.843zM78.558 167.843c-0.186 7.699-16.479 12.115-23.339 13.488 -16.988 3.4-36.335 2.063-46.077 18.535 -5.667 9.563-6.971 27.285-5.136 26.994 0.503-8.289 3.059-19.237 5.962-24.153 8.524-14.405 20.388-15.16 42.297-19.539C60.393 181.541 76.063 178.771 78.558 167.843L78.558 167.843z" fill="#ffe4d6" stroke-width="none" opacity="1" stroke="none"></path><path id="SvgjsPath4989" d="M51.206 189.513c0 0 28.641 0.299 33.473 1.885 2.314 0.758 8.372 5.633 8.372 5.633s-6.556-3.17-8.658-3.758C79.51 191.909 51.206 189.513 51.206 189.513zM99.795 199.999c2.053-0.041 7.887-3.799 7.887-3.799s-5.574 2.059-7.342 2.16c-1.491 0.086-6.366-1.238-6.366-1.238S98.112 200.032 99.795 199.999zM117.008 192.757c6.75-1.818 29.786-3.23 29.786-3.23s-23.791-0.516-30.51 1.725c-2.252 0.752-7.562 5.16-7.562 5.16S114.786 193.354 117.008 192.757z" fill="#e1ac8f" stroke-width="none" opacity="1" stroke="none"></path><path id="SvgjsPath4990" d="M190.858 199.866c-9.741-16.471-29.122-15.142-46.077-18.535 -6.86-1.373-23.153-5.789-23.339-13.488 -0.192-8.066 4.291-40.09 4.291-40.09H74.005c0 0 4.487 32.023 4.294 40.09 -0.184 7.699-16.48 12.115-23.341 13.488 -7.104 1.422-20.125 2.584-26.448 4.6 -6.156 1.963-13.624 3.777-19.632 13.936 -3.644 6.16-6.008 16.133-6.008 27.133h194C196.869 215.999 194.509 206.026 190.858 199.866z" fill="none" stroke="#c27b55" stroke-width="1.5" opacity="1"></path></g><g id="svga-group-chinshadow-single"><path id="SvgjsPath5265" d="M74.767 128.517c0.64 4.627 3.508 25.717 4.085 35.813 6.457 3.646 14.213 6.676 21.15 6.676 6.579 0 14.345-2.999 20.882-6.619 0.57-10.076 3.446-31.235 4.086-35.869l0.017-0.113H74.751L74.767 128.517z" fill="url(#SvgjsLinearGradient5266)" opacity="1"></path></g><g id="svga-group-clothes-single" ><path id="SvgjsPath5250" d="M131.897 174.908c-0.71-5.501-7.712-10.543-9.75-12.442 -0.236 4.085-0.705 6.017 0.606 8.112 -2.489 5.646-14.874 8.832-17.736 16.158 -4.637 3.334-2.905 14.993-3.52 16.256 -0.487 2.981-0.519 2.893-0.978 4.772 -3.689-9.722-0.965-15.924-5.341-19.41 -0.775-8.344-16.73-10.325-19.263-16.676 0.044 0.023 0.081 0.056 0.13 0.07 1.999-1.699 1.916-4.357 1.692-6.688 -0.017-0.763 0.014-0.165-0.167-2.685 -1 0.218-8.943 7.903-9.563 12.353 -47.123 17.062-66.354-0.609-66.371 57.268 6.439 0.001 14.098 0.142 24.677 0.336 58.466 1.074 109.342 1.267 171.612 1.073C203.17 174.271 165.243 186.777 131.897 174.908z" fill="#09aac5" stroke-width="none" opacity="1"></path><path id="SvgjsPath5251" d="M77.752 165.168c0.502 3-0.564 5.945-1.705 6.581 -0.016-0.005-0.106 0.019-0.219 0.051C73.604 169.312 76.813 167.496 77.752 165.168zM121.952 165.255c-0.163 2.308-0.168 3.773 0.802 5.323C123.256 169.933 123.97 166.587 121.952 165.255z" fill="#008ea6" stroke-width="none" opacity="1"></path><path id="SvgjsPath5252" d="M103 195c0-2.728 0.938-5.447 2.163-7.857 -0.157 1.619-0.023 3.621-0.023 5.24C115.16 191.159 128 188 132 177 129 190 115 194 103 195zM94.745 192.708c-4.508 1.127-23.834-6.931-25.875-13.89 1.958 11.167 15.81 13.406 26.81 16.406 0.525-2.625 0.133-4.42-0.417-6.638C95.262 188.587 94.495 191.708 94.745 192.708zM164.039 226.686c0.069-1 1.299-4.924 0.91-10.45 -0.569-11.436-1.158-14.953-4.13-24.87 1.838 5.188 2.378 5.507 4.24 14.58C167.123 215.282 163.961 228.045 164.039 226.686zM39.309 188.136c-4.773 10.695-7.132 14.257-6.07 27l-0.01-0.021c0.089 1 0.533 6.777 1.02 9.73 -0.489-10.028-0.196-3.99-0.33-9.73 0-10 0 9.97 0-0.03C33.314 205.074 36.536 200 39.309 188.136zM12.049 220.966c-0.347-2.074 1.398-21.812 10.73-28.311 0.95-0.647 1.46-1.007 0.48-0.39C9.37 201.488 12.049 223.12 12.049 220.966z" fill="#009cb6" stroke-width="none" opacity="1"></path><path id="SvgjsPath5253" d="M123.271 170.918c-0.382 5.633-14.783 10.771-18.217 18.123C105.395 179.851 118.691 177.167 123.271 170.918zM94.875 189.728c0.874-7.739-14.001-12.106-19.817-18.3C78.375 179.783 87.87 178.72 94.875 189.728zM191.032 202.707c5.535 9.07 4.81 18.807 6.837 24.292 0-11-1.255-20.75-4.75-26.999 -10.75-19.222-20.933-12.19-61.891-25.213C170.494 190.11 180.681 185.745 191.032 202.707zM68.771 174.787C27.813 187.81 17.631 180.778 6.881 200c-3.495 6.249-4.75 15.999-4.75 26.999 2.027-5.485 1.302-15.222 6.837-24.292C19.319 185.745 29.506 190.11 68.771 174.787z" fill="#1fbad4" stroke-width="none" opacity="1"></path><path id="SvgjsPath5254" d="M131.989 174.835c-0.58-4.709-6.171-9.438-9.833-12.482l-0.019 0.242c10.193 9.529 9.228 12.276 8.212 15.74 -0.379 1.423-2.306 4.396-5.381 6.65 -5.775 4.592-18.388 7.196-19.76 7.3 -0.986-10.086 6.97-9.877 15.59-18.06 0.426-0.408 1.954-2.042 2.08-2.561 1.445-2.345 0.869-4.797-0.864-6.922l-0.026 0.539c5.861 9.314-13.443 12.09-17.029 21.373 -4.667 3.355-2.955 15.05-3.56 16.32 -0.527 3.224-0.562 3.035-0.9 4.45 -2.902-7.66-1.46-10.241-2.89-15.261 0-0.01 0-0.01 0-0.01 -0.421-1.474-1.108-2.883-2.33-3.81 -1.001-10.774-26.998-11.045-17.54-23.285l-0.035-0.506c-12.585 13.44 18.053 12.91 16.834 28.131 -3.949 0.233-4.683-1.386-9.07-2.51 -9.301-2.722-19.946-10.46-15.35-19.051 1.694-3.16 4.616-6.051 7.444-8.681l-0.015-0.252c-3.709 3.074-8.965 7.575-9.629 12.463 -10.404 3.77-6.731 2.755-14.67 4.64 -42.604 7.271-51.71 8.612-51.71 52.801 23.243 0 62.481 1.831 196.48 1.409C203.358 173.707 164.567 186.764 131.989 174.835zM1.729 231.855c0.37-22.729 0.68-40.048 30.82-47.5 14.567-3.776 16.128-1.387 35.34-9.25 -0.288 10.922 12.107 14.433 22.59 17.49 1.68 0.484 2.988 0.49 4.4 0.26 0.12-0.824 0.529-3.08 0.42-4.08 0.964 0.965 1.456 2.188 1.75 3.51 0.311 0.312 0.496 5.03 0.51 5.47 0.518 14.971 3.707 3.918 3.29 33.671C90.129 231.426 31.302 231.643 1.729 231.855zM101.819 231.426c0.793-10.911 1.635-12.78-0.36-21.19 1.847-6.996 1.21-9.104 1.21-14.23 -0.002-0.216 0.067-3.607 0.22-3.76 0.232-1.889 0.632-3.541 1.801-4.71 -0.334 1.382-0.086 3.574 0.14 4.95 13.034 0 28.936-8.348 27.2-17.2 30.37 12.298 64.938 3.99 65.64 46.101 0.187 2.804 0.154 4.91 0.22 11.77C121.583 231.592 110.039 231.381 101.819 231.426z" fill="#008197" stroke-width="none" opacity="1"></path></g><g id="svga-group-head" ><g id="svga-group-ears-left" ><path id="SvgjsPath5124" d="M47.001 83.974c-1.376-2.313-5.638-7.997-9.98-6.603 -2.749 0.882-3.293 3.765-3.735 6.311 -0.588 3.386 0.471 10.083 1.389 12.503 0.881 2.325 3.533 6.816 5.264 8.527 2.13 2.1 4.775 8.793 5.194 9.487 0.66 1.097 1.536 2.745 4.122 2.538 2.853-0.229 4.584-1.742 5.856-1.999C58.253 114.109 50.582 89.995 47.001 83.974z" fill="#f0c7b1" stroke="#c27b55" stroke-width="1.5" opacity="1"></path><path id="SvgjsPath5125" d="M44.197 97.997c-0.132-0.548 0.007-1.47 0.142-2.362 0.124-0.812 0.24-1.579 0.169-2.121 -0.267-2.032-1.773-5.893-2.757-7.985 -1.132-2.407-2.963-5.439-5.262-6.221 -0.95-0.324-1.575 0.063-1.938 0.456 -0.266 0.289-0.325 0.627-0.238 0.667 0.086 0.04 0.285-0.24 0.572-0.504 0.235-0.216 0.579-0.402 1.051-0.363 -0.19 1.011-1.167 6.49-0.744 10.225 0.333 2.938 1.593 5.131 1.79 5.46 0.029 0.346 0.077 0.685 0.148 1.014 0.929 4.287 4.971 9.163 6.378 10.758 0.259 0.295 0.531 0.47 0.598 0.398 0.066-0.072-0.094-0.364-0.353-0.66 -1.388-1.585-5.391-6.442-6.289-10.579 -0.952-4.389 2.318-10.896 3.048-12.272 0.371 0.646 0.687 1.267 0.93 1.785 0.19 0.406 0.402 0.881 0.619 1.395 -0.429 0.718-3.434 5.958-2.338 10.153 0.406 1.546 2.235 3.54 3.447 4.086 0.667 0.301 0.919 0.75 1.209 1.271 0.336 0.604 0.718 1.288 1.828 1.784 0.225 0.102 0.429 0.142 0.61 0.142 0.313 0 0.551-0.126 0.725-0.276 0.018 0.266 0.017 0.604 0.009 0.917 -0.012 0.404 0.042 0.737 0.137 0.745 0.094 0.008 0.196-0.313 0.207-0.717 0.016-0.496 0.013-1.11-0.072-1.403 -0.248-0.865-1.008-1.841-1.813-2.875C45.221 99.896 44.403 98.844 44.197 97.997zM36.95 94.196c-2.177-6.731 0.656-12.54 1.144-13.464 0.85 0.775 1.6 1.811 2.21 2.824C39.86 84.365 37.041 89.669 36.95 94.196zM46.341 104.042c-1.004-0.447-1.339-1.051-1.666-1.633 -0.293-0.527-0.598-1.072-1.369-1.42 -0.168-0.075-0.352-0.191-0.542-0.323 -2.486-5.906 0.272-8.488 0.963-9.017 0.211 0.722 0.369 1.384 0.439 1.915 0.063 0.488-0.052 1.263-0.167 2.012 -0.142 0.929-0.286 1.89-0.137 2.512 0.226 0.926 1.069 2.009 1.884 3.057 0.723 0.929 1.466 1.888 1.721 2.67C47.359 103.972 47.017 104.345 46.341 104.042z" fill="#c27b55" stroke-width="none" opacity="1" stroke="none"></path></g><g id="svga-group-ears-right" ><path id="SvgjsPath5126" d="M152.736 83.974c1.377-2.313 5.639-7.997 9.98-6.603 2.75 0.882 3.293 3.765 3.736 6.311 0.588 3.386-0.471 10.083-1.389 12.503 -0.881 2.325-3.533 6.816-5.266 8.527 -2.129 2.1-4.775 8.793-5.193 9.487 -0.658 1.097-1.535 2.745-4.121 2.538 -2.854-0.229-4.584-1.742-5.857-1.999C141.484 114.109 149.156 89.995 152.736 83.974z" fill="#f0c7b1" stroke="#c27b55" stroke-width="1.5" opacity="1"></path><path id="SvgjsPath5127" d="M153.727 100.913c-0.805 1.033-1.564 2.009-1.813 2.875 -0.086 0.293-0.088 0.907-0.072 1.403 0.012 0.404 0.113 0.725 0.207 0.717s0.148-0.341 0.137-0.745c-0.008-0.313-0.008-0.651 0.01-0.917 0.174 0.15 0.412 0.276 0.725 0.276 0.182 0 0.385-0.04 0.609-0.142 1.109-0.496 1.492-1.18 1.828-1.784 0.289-0.52 0.543-0.969 1.209-1.271 1.213-0.546 3.041-2.54 3.447-4.086 1.096-4.194-1.908-9.435-2.338-10.153 0.217-0.513 0.43-0.988 0.619-1.395 0.244-0.518 0.559-1.139 0.93-1.785 0.73 1.377 4 7.883 3.049 12.272 -0.896 4.137-4.9 8.994-6.289 10.579 -0.258 0.296-0.418 0.588-0.352 0.66 0.066 0.071 0.338-0.104 0.598-0.398 1.406-1.596 5.449-6.471 6.379-10.758 0.07-0.329 0.117-0.668 0.146-1.014 0.197-0.329 1.459-2.523 1.791-5.46 0.422-3.735-0.555-9.214-0.744-10.225 0.473-0.039 0.814 0.146 1.051 0.363 0.287 0.264 0.486 0.544 0.572 0.504s0.027-0.378-0.238-0.667c-0.363-0.393-0.988-0.779-1.938-0.456 -2.299 0.782-4.131 3.814-5.262 6.221 -0.984 2.093-2.49 5.953-2.758 7.985 -0.072 0.542 0.045 1.309 0.17 2.121 0.135 0.892 0.273 1.814 0.141 2.362C155.336 98.844 154.518 99.896 153.727 100.913zM159.434 83.555c0.611-1.013 1.361-2.049 2.211-2.824 0.488 0.925 3.32 6.733 1.145 13.464C162.697 89.669 159.879 84.365 159.434 83.555zM152.27 103.816c0.254-0.782 0.998-1.741 1.721-2.67 0.816-1.048 1.658-2.131 1.885-3.057 0.148-0.622 0.004-1.583-0.137-2.512 -0.115-0.749-0.23-1.524-0.166-2.012 0.068-0.531 0.227-1.193 0.438-1.915 0.691 0.529 3.449 3.111 0.965 9.017 -0.191 0.132-0.375 0.248-0.543 0.323 -0.771 0.348-1.074 0.893-1.369 1.42 -0.326 0.582-0.662 1.186-1.666 1.633C152.721 104.345 152.379 103.972 152.27 103.816z" fill="#c27b55" stroke-width="none" opacity="1" stroke="none"></path></g><g id="svga-group-faceshape-wrap" ><g id="svga-group-faceshape-single" ><path id="SvgjsPath5262" d="M100.002 0.867C66.384 0.919 39.082 28.09 39.134 61.564c0.009 5.316 0.704 10.471 2.002 15.382h0.001c0.012 0.053 8.341 20.15 10.463 32.669 2.38 14.046 10.462 29.745 16.302 35.209 6.052 5.663 20.281 14.445 32.099 14.445 11.267 0 26.046-8.782 32.099-14.445 5.84-5.464 13.922-21.163 16.302-35.209 2.122-12.519 10.452-32.616 10.463-32.669h0.002c1.298-4.911 1.994-10.066 2.002-15.382C160.923 28.09 133.62 0.919 100.002 0.867z" fill="#f0c7b1" stroke-width="none" opacity="1"></path><path id="SvgjsPath5263" d="M136.901 13.326c12.866 11.136 21.063 27.958 21.036 46.772 -0.009 5.316-0.671 10.471-1.906 15.382h-0.001c-0.011 0.053-7.939 20.15-9.959 32.669 -2.267 14.047-9.959 29.745-15.517 35.209 -5.761 5.664-19.828 14.445-30.552 14.445 -11.249 0-24.792-8.781-30.552-14.445 -5.558-5.464-13.25-21.162-15.516-35.209 -2.02-12.519-9.948-32.616-9.959-32.669h-0.001c-1.236-4.911-1.898-10.066-1.906-15.382 -0.028-18.813 8.168-35.634 21.033-46.77C48.519 24.422 39.104 41.901 39.134 61.564c0.009 5.316 0.704 10.471 2.002 15.382h0.001c0.012 0.053 8.341 20.15 10.463 32.669 2.38 14.046 10.462 29.745 16.302 35.209 6.052 5.663 20.281 14.445 32.099 14.445 11.267 0 26.046-8.782 32.099-14.445 5.84-5.464 13.922-21.163 16.302-35.209 2.122-12.519 10.452-32.616 10.463-32.669h0.002c1.298-4.911 1.994-10.066 2.002-15.382C160.901 41.9 151.485 24.42 136.901 13.326z" fill="#e8b9a0" stroke-width="none" opacity="1"></path><path id="SvgjsPath5264" d="M100.002 0.867C66.384 0.919 39.082 28.09 39.134 61.564c0.009 5.316 0.704 10.471 2.002 15.382h0.001c0.012 0.053 8.341 20.15 10.463 32.669 2.38 14.046 10.462 29.745 16.302 35.209 6.052 5.663 20.281 14.445 32.099 14.445 11.267 0 26.046-8.782 32.099-14.445 5.84-5.464 13.922-21.163 16.302-35.209 2.122-12.519 10.452-32.616 10.463-32.669h0.002c1.298-4.911 1.994-10.066 2.002-15.382C160.923 28.09 133.62 0.919 100.002 0.867z" fill="none" stroke="#c27b55" stroke-width="1.5" opacity="1"></path></g></g><g id="svga-group-mouth-single" ><path id="SvgjsPath5242" d="M100.457 141.651c-3.24 0-3.697-2.678-3.697-2.678l7.125-0.188C103.884 138.785 103.307 141.651 100.457 141.651z" fill="url(#SvgjsLinearGradient5243)" opacity="1"></path><path id="SvgjsPath5246" d="M99.886 139.415c-1.668 0-2.938-0.171-3.027-0.184 -0.137-0.02-0.232-0.146-0.213-0.282 0.019-0.138 0.147-0.227 0.282-0.214 0.037 0.006 3.7 0.5 6.766-0.195 0.146-0.03 0.27 0.057 0.3 0.189 0.03 0.135-0.055 0.269-0.188 0.299C102.485 139.327 101.082 139.415 99.886 139.415zM100.071 134.142c-1.291 0-2.542-0.477-3.8-0.71 -1.408-0.262-2.812-0.038-4.221 0.096 -1.202 0.114-2.384 0.097-3.574-0.118 -0.566-0.103-1.409-0.165-1.893-0.491 -0.496-0.335-0.404-1.114 0.155-1.324 0.528-0.2 1.35 0.216 1.882 0.317 0.608 0.116 1.225 0.189 1.845 0.198 1.366 0.018 2.719-0.258 4.083-0.306 1.445-0.048 2.835 0.352 4.231 0.658 1.247 0.273 2.325 0.09 3.553-0.174 2.13-0.459 4.259-0.573 6.429-0.67 1.073-0.049 2.167-0.256 3.19-0.583 0.436-0.141 0.953-0.512 1.411-0.261 0.528 0.29 0.503 1.082-0.042 1.337 -1.781 0.837-3.78 0.972-5.715 1.061 -1.235 0.056-2.475 0.117-3.694 0.334C102.64 133.731 101.371 134.142 100.071 134.142z" fill="#c27b55" stroke-width="none" opacity="1" stroke="none"></path></g><g id="svga-group-eyes-left" ><g id="svga-group-eyesback-left"><path id="SvgjsPath5170" d="M74.285 78.051c2.405 0.037 5.43 0.584 8.73 2.542 2.382 1.412 3.481 3.918 4.146 6.074 0.051 1.025 0.034 2.001-0.015 2.872 -0.498 3.228-1.36 5.328-3.214 7.521 -0.523 0.413-1.124 0.765-1.814 0.984 -0.186 0.059-0.518-0.332-1.056-0.316 -1.889 0.053-5.997-0.058-7.633-0.029 -3.664 0.063-5.617 0-7.388-0.682 -1.779-0.685-3.124-3.201-4.519-7.747 -0.315-1.029-0.714-3.565-0.183-4.71C63.753 79.354 70.382 77.991 74.285 78.051z" fill="url(#SvgjsRadialGradient5171)" opacity="1"></path></g><g id="svga-group-eyesiriswrapper-left" transform="translate(-0.5 1.5)"><g id="svga-group-eyesiriscontrol-left" ><g id="svga-group-eyesiris-left" ><path id="SvgjsPath5228" d="M83.199 89.25c-1.231 4.522-5.896 7.187-10.429 5.944 -4.528-1.241-7.203-5.918-5.97-10.442 1.23-4.526 5.905-7.19 10.434-5.947C81.761 80.045 84.433 84.723 83.199 89.25z" fill="#7b5c33" stroke="#4d3009" stroke-width="0.5" opacity="1"></path><path id="SvgjsPath5229" d="M82.994 87.526c-0.625 5.021-4.353 7.638-8.432 7.365 -3.765-0.253-7.131-3.031-7.443-7.828 1.302-0.374 3.031 0.234 4.549 0.002 -0.005 0.055-0.023 0.104-0.025 0.16 -0.12 1.842 1.357 3.446 3.299 3.577 1.946 0.13 3.62-1.263 3.74-3.104 0.013-0.24-0.002-0.476-0.038-0.702C79.997 87.2 81.648 86.999 82.994 87.526z" fill="#8a6d47" stroke-width="none" opacity="1" stroke="none"></path><path id="SvgjsPath5230" d="M76.229 84.164c-1.869-0.535-3.777 0.533-4.26 2.396 -0.483 1.853 0.642 3.793 2.51 4.329 1.873 0.537 3.781-0.532 4.266-2.386C79.23 86.639 78.101 84.7 76.229 84.164z" fill="#000000" stroke-width="none" opacity="0.9"></path><path id="SvgjsPath5231" d="M76.229 84.164c-1.869-0.535-3.777 0.533-4.26 2.396 -0.483 1.853 0.642 3.793 2.51 4.329 1.873 0.537 3.781-0.532 4.266-2.386C79.23 86.639 78.101 84.7 76.229 84.164z" fill="none" stroke="#4d3009" stroke-width="0.75" opacity="1"></path><path id="SvgjsPath5232" d="M70.977 92.181c-0.177 0.619-1.142 0.356-0.965-0.266 0.171-0.6 0.633-0.967 0.926-1.495 0.313-0.564 1.177-0.06 0.863 0.505C71.56 91.36 71.114 91.696 70.977 92.181L70.977 92.181zM72.516 91.194c-0.266 0.31-0.614 1.458-0.766 1.834 -0.241 0.598 0.727 0.856 0.965 0.266 0.082-0.205 0.362-1.223 0.508-1.393C73.64 91.415 72.936 90.704 72.516 91.194L72.516 91.194zM74.598 94.151c0.522-0.602 0.47-1.292 0.459-2.041 -0.01-0.644-1.01-0.645-1 0 0.006 0.415 0.13 0.992-0.166 1.334C73.47 93.929 74.175 94.639 74.598 94.151L74.598 94.151zM75.619 91.985c0.008 0.621 0.084 1.226 0.268 1.82 0.19 0.614 1.155 0.352 0.965-0.266 -0.159-0.513-0.226-1.019-0.232-1.555C76.611 91.341 75.611 91.34 75.619 91.985L75.619 91.985z" fill="#ffffff" stroke-width="none" opacity="0.5"></path><path id="SvgjsPath5233" d="M80.946 85.543c-0.985 0.59-2.466 0.059-3.305-1.188 -0.838-1.248-0.713-2.739 0.273-3.328 0.984-0.593 2.467-0.061 3.301 1.187C82.053 83.462 81.932 84.952 80.946 85.543z" fill="#ffffff" stroke-width="none" opacity="0.8"></path></g></g></g><g id="svga-group-eyesfront-left"><path id="SvgjsPath5195" d="M55 88c0 13.808 8.507 24.999 19 24.999S93 101.808 93 88c0-13.809-8.507-25.001-19-25.001S55 74.191 55 88zM61.524 89.269c-0.315-1.029-0.714-3.565-0.183-4.71 2.411-5.206 9.04-6.568 12.943-6.508 2.405 0.037 5.43 0.584 8.73 2.542 2.382 1.412 3.481 3.918 4.146 6.074 0.051 1.025 0.034 2.001-0.015 2.872 -0.498 3.228-1.36 5.328-3.214 7.521 -0.523 0.413-1.124 0.765-1.814 0.984 -0.186 0.059-0.518-0.332-1.056-0.316 -1.889 0.053-5.997-0.058-7.633-0.029 -3.664 0.063-5.617 0-7.388-0.682C64.264 96.331 62.919 93.815 61.524 89.269z" fill="#f0c7b1" stroke-width="none" opacity="1" stroke="none"></path><path id="SvgjsPath5196" d="M59.4 87.087c0.023 8.835 7.871 15.959 17.541 15.912 9.664-0.05 17.482-7.249 17.459-16.085 -0.023-8.838-7.873-15.962-17.541-15.915C67.191 71.049 59.375 78.248 59.4 87.087zM61.425 89.269c-0.315-1.029-0.714-3.565-0.183-4.71 2.411-5.206 9.04-6.568 12.943-6.508 2.405 0.037 5.43 0.584 8.73 2.542 2.382 1.412 3.481 3.918 4.146 6.074 0.051 1.025 0.034 2.001-0.015 2.872 -0.498 3.228-1.36 5.328-3.214 7.521 -0.523 0.413-1.124 0.765-1.814 0.984 -0.186 0.059-0.518-0.332-1.056-0.316 -1.889 0.053-5.997-0.058-7.633-0.029 -3.664 0.063-5.617 0-7.388-0.682C64.164 96.331 62.819 93.815 61.425 89.269z" fill="url(#SvgjsRadialGradient5197)" opacity="1"></path><path id="SvgjsPath5201" d="M74.285 78.051c2.405 0.037 5.43 0.584 8.73 2.542 2.382 1.412 3.481 3.918 4.146 6.074 0.051 1.025 0.034 2.001-0.015 2.872 -0.498 3.228-1.36 5.328-3.214 7.521 -0.523 0.413-1.124 0.765-1.814 0.984 -0.186 0.059-0.518-0.332-1.056-0.316 -1.889 0.053-5.997-0.058-7.633-0.029 -3.664 0.063-5.617 0-7.388-0.682 -1.779-0.685-3.124-3.201-4.519-7.747 -0.315-1.029-0.714-3.565-0.183-4.71C63.753 79.354 70.382 77.991 74.285 78.051z" fill="url(#SvgjsRadialGradient5202)" opacity="1"></path><path id="SvgjsPath5205" d="M62.929 75.008c3.48-1.16 13.972-1.121 18.53 1.682C75.11 74.179 69.218 74.275 62.929 75.008zM84.433 77.843c1.651 0.614 2.711 1.961 3.462 3.018C86.797 79.697 85.264 78.468 84.433 77.843z" fill="#c27b55" stroke-width="none" opacity="1" stroke="none"></path><path id="SvgjsPath5206" d="M89.427 83.939l-3.419-2.076c0 0 1.154 1.526 1.154 4.824 -0.665-2.123-1.765-4.592-4.146-5.983 -3.301-1.928-6.325-2.467-8.73-2.503 -3.903-0.06-10.532 1.283-12.943 6.411 -0.531 1.128-0.133 3.626 0.183 4.64 1.395 4.478 2.739 6.957 4.519 7.632 1.771 0.672 3.724 0.733 7.388 0.671 1.636-0.028 5.744 0.081 7.633 0.029 0.538-0.015 1.014 0.123 1.056 0.312 0.041 0.189-0.395 0.357-0.934 0.388 -2.036 0.114-3.359 0.311-8.537 0.311 -4.591 0-6.316-0.105-7.461-0.574 -1.544-0.632-2.398-2.7-4.601-9.561 -2.888-4.32-5.457-7.39-8.587-9.511l4.988 1.574c-0.918-1.097-1.854-2.061-3.828-3.673 4.084 0.439 5.593 0.581 8.603 0.113 4.769-0.742 7.774-0.87 12.095-0.714C80.361 77.261 85.175 79.412 89.427 83.939zM83.87 97.003c2.504-1.659 3.292-4.259 3.292-7.569C86.66 92.701 85.787 94.795 83.87 97.003z" fill="#2e0914" stroke-width="none" opacity="1" stroke="none"></path></g></g><g id="svga-group-eyes-right" ><g id="svga-group-eyesback-right"><path id="SvgjsPath5178" d="M125.715 78.051c-2.405 0.037-5.43 0.584-8.73 2.542 -2.382 1.412-3.481 3.918-4.146 6.074 -0.051 1.025-0.034 2.001 0.015 2.872 0.498 3.228 1.36 5.328 3.214 7.521 0.523 0.413 1.124 0.765 1.814 0.984 0.186 0.059 0.518-0.332 1.056-0.316 1.889 0.053 5.997-0.058 7.633-0.029 3.664 0.063 5.617 0 7.388-0.682 1.779-0.685 3.124-3.201 4.519-7.747 0.315-1.029 0.714-3.565 0.183-4.71C136.247 79.354 129.618 77.991 125.715 78.051z" fill="url(#SvgjsRadialGradient5179)" opacity="1"></path></g><g id="svga-group-eyesiriswrapper-right" transform="translate(0.5 1.5)"><g id="svga-group-eyesiriscontrol-right" ><g id="svga-group-eyesiris-right" ><path id="SvgjsPath5234" d="M133.199 89.25c-1.231 4.522-5.896 7.187-10.429 5.944 -4.528-1.241-7.203-5.918-5.97-10.442 1.23-4.526 5.905-7.19 10.434-5.947C131.761 80.045 134.433 84.723 133.199 89.25z" fill="#7b5c33" stroke="#4d3009" stroke-width="0.5" opacity="1"></path><path id="SvgjsPath5235" d="M132.994 87.526c-0.625 5.021-4.353 7.638-8.432 7.365 -3.765-0.253-7.131-3.031-7.443-7.828 1.302-0.374 3.031 0.234 4.549 0.002 -0.005 0.055-0.023 0.104-0.025 0.16 -0.12 1.842 1.357 3.446 3.299 3.577 1.946 0.13 3.62-1.263 3.74-3.104 0.013-0.24-0.002-0.476-0.038-0.702C129.997 87.2 131.648 86.999 132.994 87.526z" fill="#8a6d47" stroke-width="none" opacity="1" stroke="none"></path><path id="SvgjsPath5236" d="M126.229 84.164c-1.869-0.535-3.777 0.533-4.26 2.396 -0.483 1.853 0.642 3.793 2.51 4.329 1.873 0.537 3.781-0.532 4.266-2.386C129.23 86.639 128.101 84.7 126.229 84.164z" fill="#000000" stroke-width="none" opacity="0.9"></path><path id="SvgjsPath5237" d="M126.229 84.164c-1.869-0.535-3.777 0.533-4.26 2.396 -0.483 1.853 0.642 3.793 2.51 4.329 1.873 0.537 3.781-0.532 4.266-2.386C129.23 86.639 128.101 84.7 126.229 84.164z" fill="none" stroke="#4d3009" stroke-width="0.75" opacity="1"></path><path id="SvgjsPath5238" d="M120.977 92.181c-0.177 0.619-1.142 0.356-0.965-0.266 0.171-0.6 0.633-0.967 0.926-1.495 0.313-0.564 1.177-0.06 0.863 0.505C121.56 91.36 121.114 91.696 120.977 92.181L120.977 92.181zM122.516 91.194c-0.266 0.31-0.614 1.458-0.766 1.834 -0.241 0.598 0.727 0.856 0.965 0.266 0.082-0.205 0.362-1.223 0.508-1.393C123.64 91.415 122.936 90.704 122.516 91.194L122.516 91.194zM124.598 94.151c0.522-0.602 0.47-1.292 0.459-2.041 -0.01-0.644-1.01-0.645-1 0 0.006 0.415 0.13 0.992-0.166 1.334C123.47 93.929 124.175 94.639 124.598 94.151L124.598 94.151zM125.619 91.985c0.008 0.621 0.084 1.226 0.268 1.82 0.19 0.614 1.155 0.352 0.965-0.266 -0.159-0.513-0.226-1.019-0.232-1.555C126.611 91.341 125.611 91.34 125.619 91.985L125.619 91.985z" fill="#ffffff" stroke-width="none" opacity="0.5"></path><path id="SvgjsPath5239" d="M130.946 85.543c-0.985 0.59-2.466 0.059-3.305-1.188 -0.839-1.248-0.714-2.739 0.272-3.328 0.984-0.593 2.467-0.061 3.301 1.187C132.054 83.462 131.932 84.952 130.946 85.543z" fill="#ffffff" stroke-width="none" opacity="0.8"></path></g></g></g><g id="svga-group-eyesfront-right"><path id="SvgjsPath5216" d="M126 62.999c-10.493 0-19 11.193-19 25.001 0 13.808 8.507 24.999 19 24.999S145 101.808 145 88C145 74.191 136.493 62.999 126 62.999zM133.957 97.016c-1.771 0.682-3.724 0.744-7.388 0.682 -1.636-0.028-5.744 0.083-7.633 0.029 -0.538-0.015-0.87 0.375-1.056 0.316 -0.69-0.219-1.291-0.571-1.814-0.984 -1.854-2.192-2.716-4.293-3.214-7.521 -0.049-0.871-0.065-1.847-0.015-2.872 0.665-2.155 1.765-4.662 4.146-6.074 3.301-1.957 6.325-2.504 8.73-2.542 3.903-0.061 10.532 1.302 12.943 6.508 0.531 1.145 0.133 3.681-0.183 4.71C137.081 93.815 135.736 96.331 133.957 97.016z" fill="#f0c7b1" stroke-width="none" opacity="1" stroke="none"></path><path id="SvgjsPath5217" d="M123.141 70.999c-9.668-0.047-17.518 7.077-17.541 15.915 -0.023 8.836 7.795 16.035 17.459 16.085 9.67 0.047 17.518-7.077 17.541-15.912C140.625 78.248 132.809 71.049 123.141 70.999zM134.057 97.016c-1.771 0.682-3.724 0.744-7.388 0.682 -1.636-0.028-5.744 0.083-7.633 0.029 -0.538-0.015-0.87 0.375-1.056 0.316 -0.69-0.219-1.291-0.571-1.814-0.984 -1.854-2.192-2.716-4.293-3.214-7.521 -0.049-0.871-0.065-1.847-0.015-2.872 0.665-2.155 1.765-4.662 4.146-6.074 3.301-1.957 6.325-2.504 8.73-2.542 3.903-0.061 10.532 1.302 12.943 6.508 0.531 1.145 0.133 3.681-0.183 4.71C137.181 93.815 135.836 96.331 134.057 97.016z" fill="url(#SvgjsRadialGradient5218)" opacity="1"></path><path id="SvgjsPath5222" d="M125.715 78.051c-2.405 0.037-5.43 0.584-8.73 2.542 -2.382 1.412-3.481 3.918-4.146 6.074 -0.051 1.025-0.034 2.001 0.015 2.872 0.498 3.228 1.36 5.328 3.214 7.521 0.523 0.413 1.124 0.765 1.814 0.984 0.186 0.059 0.518-0.332 1.056-0.316 1.889 0.053 5.997-0.058 7.633-0.029 3.664 0.063 5.617 0 7.388-0.682 1.779-0.685 3.124-3.201 4.519-7.747 0.315-1.029 0.714-3.565 0.183-4.71C136.247 79.354 129.618 77.991 125.715 78.051z" fill="url(#SvgjsRadialGradient5223)" opacity="1"></path><path id="SvgjsPath5226" d="M118.541 76.689c4.559-2.803 15.05-2.842 18.53-1.682C130.782 74.275 124.89 74.179 118.541 76.689zM112.105 80.861c0.751-1.057 1.811-2.404 3.462-3.018C114.736 78.468 113.203 79.697 112.105 80.861z" fill="#c27b55" stroke-width="none" opacity="1" stroke="none"></path><path id="SvgjsPath5227" d="M126.143 76.247c4.32-0.156 7.326-0.028 12.095 0.714 3.01 0.468 4.519 0.327 8.603-0.113 -1.974 1.612-2.91 2.576-3.828 3.673L148 78.947c-3.13 2.121-5.699 5.191-8.587 9.511 -2.202 6.861-3.057 8.929-4.601 9.561 -1.145 0.469-2.87 0.574-7.461 0.574 -5.178 0-6.501-0.197-8.537-0.311 -0.539-0.03-0.975-0.199-0.934-0.388 0.042-0.188 0.518-0.327 1.056-0.312 1.889 0.052 5.997-0.057 7.633-0.029 3.664 0.062 5.617 0 7.388-0.671 1.779-0.675 3.124-3.154 4.519-7.632 0.315-1.014 0.714-3.512 0.183-4.64 -2.411-5.128-9.04-6.47-12.943-6.411 -2.405 0.037-5.43 0.576-8.73 2.503 -2.382 1.391-3.481 3.86-4.146 5.983 0-3.297 1.154-4.824 1.154-4.824l-3.419 2.076C114.825 79.412 119.639 77.261 126.143 76.247zM112.838 89.434c0 3.31 0.788 5.91 3.292 7.569C114.213 94.795 113.34 92.701 112.838 89.434z" fill="#2e0914" stroke-width="none" opacity="1" stroke="none"></path></g></g><g id="svga-group-facehighlight-single" ><path id="SvgjsPath4979" d="M140.204 113.007c0.035 22.275-17.995 40.365-40.273 40.396 -22.274 0.036-40.361-17.993-40.396-40.272C59.501 90.857 77.53 72.77 99.808 72.735 122.083 72.701 140.171 90.73 140.204 113.007z" fill="url(#SvgjsRadialGradient4980)" opacity="1"></path><path id="SvgjsPath4983" d="M135,55.999c0,19.329-15.671,35-35,35c-19.329,0-35-15.671-35-35s15.671-35,35-35C119.329,20.999,135,36.67,135,55.999z" fill="url(#SvgjsRadialGradient4984)" opacity="1"></path></g><g id="svga-group-eyebrows-left" ><path id="SvgjsPath5240" d="M56.113 70.739c32.178-9.407 39.48 9.836 32.802 3.849C81.977 68.368 65.958 68.92 56.113 70.739z" fill="#b79675" stroke-width="none" opacity="1" stroke="none"></path></g><g id="svga-group-eyebrows-right" ><path id="SvgjsPath5241" d="M143.889 70.731c-9.304-1.701-22.773-2.38-30.946 2.53 -1.01 0.606-5.017 4.041-3.951 1.625C110.929 70.486 123.744 64.882 143.889 70.731z" fill="#b79675" stroke-width="none" opacity="1" stroke="none"></path></g><g id="svga-group-nose-single" ><path id="SvgjsPath5247" d="M100.809 118.607c-0.345 0.375-0.628 0.33-0.954-0.059l-3.63-4.392h8.911L100.809 118.607z" fill="#e1ac8f" stroke-width="none" opacity="1" stroke="none"></path><path id="SvgjsPath5248" d="M95.208 114.839l4.719 3.839c0.394 0.32 0.545 0.199 0.34-0.27l-1.683-3.813c-0.082-0.185-0.107-0.495-0.057-0.691l1.001-6.771 -4.453 6.41C94.755 113.937 94.814 114.52 95.208 114.839z" fill="#c27b55" stroke-width="none" opacity="1" stroke="none"></path></g><g id="svga-group-hair-front" ><path id="SvgjsPath5148" d="M146.93 34.899H51.19l2.047 63.665c0.413-1.002 6.167-11.347 6.883-9.885 27.017-13.333 35.79-30.203 41.162-43.761 -8.006 33.653-27.315 38.394-27.315 38.394 4.23-0.47 16.372-1.724 24.386-10.048 1.049-1.109 9.917-7.806 17.639-28.686 1.598 17.179 9.102 35.856 21.778 43.817 -4.244-8.364-9.812-29.919-10.834-45.113 7.041 34.369 14.163 52.434 20.596 64.606 2.186 4.135 6.498 11.445 5.991 11.344C155.064 127.09 146.93 34.899 146.93 34.899z" fill="#b79675" stroke-width="none" opacity="0.1" stroke="none"></path><path id="SvgjsPath5149" d="M123.977 2.768c-3.083-1.172-5.286-2.017-8.009-2.746 -0.046-1-52.547-15.95-79.211 46.22C30 65.827 26.418 96.013 32.644 115.821c1.439 4.387 5.438 10.615 9.24 31.491 1.83 10.049 3.275 17.985 14.18 29.005 2.863 2.896 10.198 8.648 11.516 13.763 4.04-22.237-3.639-28.484-10.942-34.448 -5.008-4.09-9.886-5.026 3.084-1.95 0 0 2.742-0.172 8.082-3.547 -8.452 1.78-14.496-1.088-18.395-7.845 -5.153-8.931-5.126-22.432 0.063-31.404 5.211 2.94 4.943 17.158 5.213 18.975 2.336-7.38-1.068-29.004-1.447-31.296 -0.086-1.031 1.344-4.568 1.344-4.568 0.413-1.002 4.823-9.035 5.539-7.572 27.017-13.333 35.79-30.203 41.162-43.761 -8.006 33.653-26.338 40.13-26.338 40.13 4.23-0.47 15.395-3.46 23.408-11.784 1.049-1.109 10.575-11.543 18.297-32.423 1.598 17.179 9.354 36.563 19.454 48.129 -4.244-8.364-8.146-30.494-9.168-45.688 7.041 34.369 15.773 50.895 22.206 63.066 2.186 4.135 4.633 11.112 4.126 11.011 1.542 7.857-1.689 25.994-16.881 30.317 2.979 0.559 5.525 0.628 7.732 0.33 -16.469 16.26-7.259 25.821-4.188 43.015 0.856-3.048 0.825-6.172 5.466-12.909 8.701-12.646 1.984-12.887 12.664-33.732 11.454-22.361 10.121-31.09 11.148-37.028C169.358 104.3 175.752 22.291 123.977 2.768z" fill="#b79675" stroke-width="none" opacity="1" stroke="none"></path><path id="SvgjsPath5150" d="M67.764 188.989c0.423-2.594 0.691-4.943 0.835-7.097C68.471 184.053 68.198 186.411 67.764 188.989zM74 74c12.458-18.076 20-31 24-50 -9.526 21.91-26.401 39.19-40.852 57.299 -0.179-4.145 0.471-27.813 19.151-56.07C53.909 45.714 44.072 74.808 50 92.329c-4.381-9.265-7.631-27.423-4.534-39.992C32.93 82.071 50.324 95.5 55.201 114.308c-1.344-18.182-3.149-14.727-0.619-20.983 0.353-0.856 2.804-5.552 2.941-4.476 1.148-1.746 2.267-3.1 2.597-2.425 27.017-13.333 35.79-30.203 41.162-43.761 -8.006 33.653-26.338 40.13-26.338 40.13 12.432-1.38 32.048-22.872 29.337-54.052C99.279 46.741 86.458 62.405 74 74zM167.643 69.768C168.346 85.58 166.535 100.791 164 116c-2-14-5.646-30.432-12.166-48.964 5.535 25.6 4.855 34.796 5.16 44.698 -13.146-28.627-26.344-53.284-31.411-82.828C124.631 39.739 127.384 55.924 129 68c-4.369-9.761-9.298-21.428-11.084-39.259 0 3.435-0.399 5.222-1.558 9.477 1.731 17.014 9.773 37.078 19.745 48.497 -4.244-8.364-8.146-30.494-9.168-45.688 7.041 34.369 15.773 50.895 22.206 63.066 1.876 3.549 3.938 9.179 4.167 10.643 0.038 0.242 0.031 0.383-0.041 0.368 0.158 0.808 0.264 1.729 0.313 2.728 1.77 4.593 2.528 7.402 1.474 10.785 -1.525 4.895-9.049 15.63-18.668 16.805 8.743 2.063 14.341-2.79 18.97-8.827 -6.923 15.946-21.127 8.797-15.486 51.65 0.701-2.468 1.708-6.844 5.527-12.388 8.701-12.646 1.984-12.887 12.664-33.732 11.454-22.361 10.121-31.09 11.148-37.028C169.274 104.75 170.52 89.027 167.643 69.768zM44.483 143.565c2.989 1.909 6.538 10.618 16.535 9.841C41.105 148.271 42 120.18 42 103c-1.471 4.902-2.685 10.05-3.438 15.315 -11.3-30.764-4.969-64.11 9.831-92.716 -4.203 5.701-8.144 12.5-11.637 20.643 -16.692 48.389-0.499 78.419 0.992 83.356 6.717 22.247 2.683 30.923 18.315 46.719 2.863 2.896 10.198 8.648 11.516 13.763C71.369 164.985 48.613 158.099 44.483 143.565zM142.95 25.75c15.545 14.046 21.195 45.833 21.328 69.442C164.39 100.162 164.413 46.131 142.95 25.75zM154.875 82.765c3.342 20.038-2.521-42.627-24.576-58.441C143.508 35.305 152.316 67.792 154.875 82.765zM70.88 22.753c5.942-4.945-2.793 2-5.802 4.808C54.54 37.09 50.033 46.996 47.94 57.751 51.505 42.729 59.444 32.739 70.88 22.753zM84.705 24.485c2.822-2.594-13.942 8.265-22.912 41.27C68.529 45.157 77.302 31.847 84.705 24.485z" fill="#a8815a" stroke-width="none" opacity="1" stroke="none"></path><path id="SvgjsPath5151" d="M151.671 107.902c17.19 26.816 3.447 35.355 1.861 40.974C155.307 142.587 164.622 133.223 151.671 107.902zM163.42 128.026c0.103-1 3.263-9.188 0.12-24.545 -1.706-8.337-4.72-16.315-6.759-24.558C160.708 97.38 165.319 109.35 163.42 128.026zM40.778 139.904c0.025-1.461-5.489-18.724 2.449-40.017C31.997 123.286 40.828 137.053 40.778 139.904zM47.054 108.148c-0.2-0.831-0.822-1.722-1.174-2.497 -13.39-29.399-4.231-52.055 7.184-80.645C37.802 57.778 30.55 77.146 47.054 108.148zM76.707 21.78c0.036-0.038 3.867-3.963 3.917-3.95 -0.095-0.025-0.761 0.712-0.836 0.781C58.372 38.149 45.057 58.889 48.989 87.389 46.38 61.056 58.712 40.895 76.707 21.78zM99.998 17.774c-3.237 8.17-26.894 43.475-42.375 62.038C83.633 50.897 99.614 20.587 99.998 17.774zM82.755 80.445c-0.234 0.139-2.196 1.563-2.301 1.506 0.045 0.024 1.552-0.942 1.671-1.005 26.81-14.112 29.966-31.518 36.614-59.983C111.34 47.604 106.258 66.473 82.755 80.445zM155.396 106.15c-4.141-9.261-29.368-64.249-29.976-80.447C125.997 52.586 154.947 105.149 155.396 106.15zM148.657 74.301c0.361 1.587 0.849 3.182 1.121 4.785 -3.42-20.115-5.357-34.698-17.969-50.635C140.228 39.304 143.225 50.447 148.657 74.301zM136.445 21.347c0 0.068-0.079 0.248-0.18 0.171 16.048 12.281 24.425 58.902 24.777 59.902 -1.188-3.375 0.299-28.648-19.299-53.957 -1.58-2.04-3.319-4.493-5.468-5.976 0.061 0.017 0.187-0.063 0.143-0.136 0.066 0.106 0.143 0.201 0.221 0.3C136.731 21.704 136.445 21.53 136.445 21.347z" fill="#c6ac93" stroke-width="none" opacity="1" stroke="none"></path><path id="SvgjsPath5152" d="M152.811 150.46c-5.664 16.369-6.497 17.491-6.497 17.491C145.881 168.951 149.452 157.542 152.811 150.46zM145.609 171.244c-0.081 0.287-0.612 2.203-0.539 1.967 1.925-5.472 3.814-6.661 5.754-14.988C148.631 165.023 148.427 163.099 145.609 171.244zM146.069 171.593c-3.171 4.709-3.991 7.679-3.865 7.369 0.093-0.278 0.782-1.668 1.515-2.844 1.649-2.668 3.643-4.701 5.109-9.896C148.427 167.289 147.835 169.096 146.069 171.593zM50.233 166.038c3.835 4.714-0.635 0.469-6.922-14.783C45.74 159.453 47.645 162.625 50.233 166.038zM55.452 171.15c-1.002-0.743-7.178-6.813-9.562-11.396C49.341 167.897 56.454 171.917 55.452 171.15zM52.553 170.327c10.604 9.982-2.789-2.537-3.953-4.89C48.6 165.438 48.617 166.515 52.553 170.327z" fill="#b79675" stroke-width="none" opacity="1" stroke="none"></path><path id="SvgjsPath5153" d="M167.879 61.476c-12.103-57.797-52.05-61.709-49.288-60.534C82.706-11.776 39.498 11.482 30.849 62.735c-2.427 14.398-3.457 40.922 0.152 51.061 2.023 5.684 3.274 8.689 5.778 15.28 7.917 21.966-0.744 33.347 24.319 52.629 3.111 2.404 5.166 5.576 6.57 9.28 0.011-0.021 0.206-1.185 0.21-1.21 3.034-17.218 1.952-26.859-14.556-37.602 4.582 2.664 10.785 1.913 14.707-2.328 -18.17 5.154-26.956-19.264-18.035-37.71 3.31 7.742 4.615 15.037 4.415 19.26 3.667-11.231 1.363-15.783-0.26-36.23 1.382-3.195 3.084-5.784 5.23-8.52 18.811-9.406 32.957-18.133 42.583-45.857 -2.319 7.76-3.984 15.355-10.583 25.527 -8.651 13.359-12.577 13.816-17.96 16.7 4.453 0 10.501-1.322 18.886-6.369 -1.375 1.17-2.601 2.299-5.326 4.209 13.693-8.82 23.971-21.423 29.379-42.638 -3.583 16.868-5.419 32.085-22.899 41.488 17.491-8.862 20.781-21.575 23.227-41.07 1.759 30.597 16.143 46.195 21.084 49.76 -6.279-10.305-9.001-34.624-11.224-50.274 2.413 14.985 1.465 10.331 5.243 24.954 6.901 26.356 15.578 41.213 20.585 51.722 2.062 14.443-4.134 27.799-17.385 30.438 3.135 1.249 6.225 1.409 8.729 0.8 -18.508 18.508-7.2 24.044-3.8 43.63 1.291-8.023 5.813-11.861 9.25-18.229 3.456-6.434 2.206-13.346 6.01-21.3C167.924 123.713 178.348 111.793 167.879 61.476zM136.719 145.355c10.184-1.965 18.639-15.794 17.193-27.181 3.127 7.31 3.785 12.573-0.413 18.921C149.909 143.246 143.775 147.014 136.719 145.355zM155.356 136.595L155.356 136.595c-0.008-0.008-0.009-0.01-0.027-0.01C155.316 136.585 155.341 136.58 155.356 136.595zM168.709 105.035c-2.086 29.331-15.352 38.543-17.63 54 -2.551 17.787-8.397 14.561-11.22 28.42 -3.092-17.286-11.779-25.501 4.99-41.729 7.597-2.349 15.125-11.563 12.619-23.141 -3.939-18.205-19.696-28.375-30.75-85.2 0.001 0.021 0.004 0.041 0.005 0.062 -0.188-0.892-0.424-1.969-0.574-2.721 -0.041-0.039-1.392-8.322 0.028 1.145 0.448 15.911 4.518 40.049 9.187 49.243 -14.321-18.218-17.941-38.157-18.659-46.634 0.132-1.054 0.262-2.123 0.391-3.217v0.001c0.594-4.784 1.755-12.568-0.516 1.36 -7.278 20.704-16.344 31.664-18.591 34.042 -7.751 8.047-19.589 11.732-22.89 12.03 19.078-8.456 25.617-31.208 28.85-51.12 -0.116 0.562-1.372 6.57-1.26 6.01 -5.817 15.457-13.401 33.887-42.791 48.39 21.149-26.064 32.342-46.549 37.38-60.3 -10.229 24.39-39.564 59.988-42.96 68.23 -1.051-33.877 10.756-57.804 22.45-68.31 -12.185 9.517-27.02 37.211-24.03 73.01 1.093 6.624 3.499 23.741 2.033 30.36 0.267-4.023-0.573-9.699-1.343-12.41v-0.011c-3.027-10.95-10.455-19.118-11.85-31.479 -1.26-11.15-0.79-22.64 4.16-32.88 -3.67 6.9-5.469 14.376-5.76 22.17 -0.845 22.599 5.915 24.877 9.065 36.278 -9.468 16.356-1.527 45.11 17.855 39.802 -11.657 9.495-21.668-7.561-23.435-10.817 -2.728-6.707-3.268-14.404-3.604-21.543 -0.12 51.119 33.988 27.358 27.697 71.093 -0.804-3.887-10.145-12.2-11.137-13.202 -15.067-15.233-11.885-24.441-17-41.98 -2.092-9.778-4.664-13.319-6.303-18.315 -6.389-20.335-2.216-50.915 4.113-69.265 12.133-28.275 31.378-46.868 62-47.87 7.224-0.239 22.339 2.489 13.6 1.26 4.341 0.897 6.861 1.884 10.97 3.44 50.765 19.143 45.277 99.834 44.92 101.77C168.719 105.005 168.709 105.015 168.709 105.035z" fill="#895c2f" stroke-width="none" opacity="1" stroke="none"></path></g><g id="svga-group-glasses-single" ><path id="SvgjsPath5111" d="M100,18.13L100,18.13L100,18.13L100,18.13z" fill="#26120b" stroke-width="none" opacity="1"></path></g></g></g><rect id="SvgjsRect4964" width="200" height="15" x="0" y="185" fill="#ecf0f1" opacity="0.5" style="display:none;"></rect><text id="SvgjsText4965" font-family="&quot;Roboto&quot;, &quot;Helvetica Neue&quot;, Helvetica, Arial, sans-serif" style="font-size:0.84em;font-family:&quot;Roboto&quot;, &quot;Helvetica Neue&quot;, Helvetica, Arial, sans-serif;text-anchor:middle;font-weight:400;display:none;" font-size="0.84em" text-anchor="middle" font-weight="400" fill="#000000" x="100" y="185"><tspan id="SvgjsTspan4966" dy="1.2em" x="100" style="font-size:0.84em;font-family:&quot;Roboto&quot;, &quot;Helvetica Neue&quot;, Helvetica, Arial, sans-serif;text-anchor:middle;font-weight:400;">www.creartuavatar.com</tspan></text></g><defs id="SvgjsDefs4932"><radialGradient id="SvgjsRadialGradient4980" cx="100" cy="113" r="40" gradientUnits="userSpaceOnUse" class="svga-on-canvas-facehighlight-gradient-single-0"><stop id="SvgjsStop4981" stop-opacity="0.5" stop-color="#ffe4d6" offset="0" ></stop><stop id="SvgjsStop4982" stop-opacity="0" stop-color="#f0c7b1" offset="0.9" ></stop></radialGradient><radialGradient id="SvgjsRadialGradient4984" cx="100" cy="57" r="36" gradientUnits="userSpaceOnUse" class="svga-on-canvas-facehighlight-gradient-single-1"><stop id="SvgjsStop4985" stop-opacity="0.5" stop-color="#ffe4d6" offset="0" ></stop><stop id="SvgjsStop4986" stop-opacity="0" stop-color="#f0c7b1" offset="0.9" ></stop></radialGradient><radialGradient id="SvgjsRadialGradient5065" cx="-558.588" cy="-490.918" r="84.646" gradientTransform="matrix(0.096 -0.0248 0.0245 0.0961 140.5478 120.3577)" gradientUnits="userSpaceOnUse" class="svga-on-canvas-eyesiris-gradient-left-1"><stop id="SvgjsStop5066" stop-opacity="0.8" stop-color="#ffffff" offset="0" ></stop><stop id="SvgjsStop5067" stop-opacity="0" stop-color="#ffffff" offset="1" ></stop></radialGradient><radialGradient id="SvgjsRadialGradient5069" cx="-565.337" cy="-492.691" r="84.644" gradientTransform="matrix(0.0991 8.856325e-004 -0.0011 0.0991 130.3774 136.3533)" gradientUnits="userSpaceOnUse" class="svga-on-canvas-eyesiris-gradient-left-2"><stop id="SvgjsStop5070" stop-opacity="0.8" stop-color="#ffffff" offset="0" ></stop><stop id="SvgjsStop5071" stop-opacity="0" stop-color="#ffffff" offset="1" ></stop></radialGradient><linearGradient id="SvgjsLinearGradient5075" x1="122.283" y1="93.047" x2="123.61" y2="91.466" gradientTransform="matrix(1 0 0 1 -52 0)" gradientUnits="userSpaceOnUse" class="svga-on-canvas-eyesiris-gradient-left-5"><stop id="SvgjsStop5076" stop-opacity="1" stop-color="#ffffff" offset="0" ></stop><stop id="SvgjsStop5077" stop-opacity="0" stop-color="#ffffff" offset="1" ></stop></linearGradient><linearGradient id="SvgjsLinearGradient5079" x1="127" y1="85" x2="125" y2="87" gradientTransform="matrix(1 0 0 1 -50 0)" gradientUnits="userSpaceOnUse" class="svga-on-canvas-eyesiris-gradient-left-6"><stop id="SvgjsStop5080" stop-opacity="1" stop-color="#ffffff" offset="0" ></stop><stop id="SvgjsStop5081" stop-opacity="0" stop-color="#ffffff" offset="1" ></stop></linearGradient><linearGradient id="SvgjsLinearGradient5083" x1="130" y1="81" x2="126" y2="85" gradientTransform="matrix(1 0 0 1 -50 0)" gradientUnits="userSpaceOnUse" class="svga-on-canvas-eyesiris-gradient-left-7"><stop id="SvgjsStop5084" stop-opacity="1" stop-color="#ffffff" offset="0" ></stop><stop id="SvgjsStop5085" stop-opacity="0" stop-color="#ffffff" offset="1" ></stop></linearGradient><radialGradient id="SvgjsRadialGradient5088" cx="-578.76" cy="-490.73" r="84.646" gradientTransform="matrix(0.096 -0.0248 0.0245 0.0961 192.4794 119.8404)" gradientUnits="userSpaceOnUse" class="svga-on-canvas-eyesiris-gradient-right-1"><stop id="SvgjsStop5089" stop-opacity="0.8" stop-color="#ffffff" offset="0" ></stop><stop id="SvgjsStop5090" stop-opacity="0" stop-color="#ffffff" offset="1" ></stop></radialGradient><radialGradient id="SvgjsRadialGradient5092" cx="-584.778" cy="-487.329" r="84.644" gradientTransform="matrix(0.0991 8.856325e-004 -0.0011 0.0991 182.3104 135.839)" gradientUnits="userSpaceOnUse" class="svga-on-canvas-eyesiris-gradient-right-2"><stop id="SvgjsStop5093" stop-opacity="0.8" stop-color="#ffffff" offset="0" ></stop><stop id="SvgjsStop5094" stop-opacity="0" stop-color="#ffffff" offset="1" ></stop></radialGradient><linearGradient id="SvgjsLinearGradient5098" x1="120.284" y1="93.047" x2="121.611" y2="91.467" gradientUnits="userSpaceOnUse" class="svga-on-canvas-eyesiris-gradient-right-5"><stop id="SvgjsStop5099" stop-opacity="1" stop-color="#ffffff" offset="0" ></stop><stop id="SvgjsStop5100" stop-opacity="0" stop-color="#ffffff" offset="1" ></stop></linearGradient><linearGradient id="SvgjsLinearGradient5102" x1="127" y1="85" x2="125" y2="87" gradientUnits="userSpaceOnUse" class="svga-on-canvas-eyesiris-gradient-right-6"><stop id="SvgjsStop5103" stop-opacity="1" stop-color="#ffffff" offset="0" ></stop><stop id="SvgjsStop5104" stop-opacity="0" stop-color="#ffffff" offset="1" ></stop></linearGradient><linearGradient id="SvgjsLinearGradient5106" x1="130" y1="81" x2="126" y2="85" gradientUnits="userSpaceOnUse" class="svga-on-canvas-eyesiris-gradient-right-7"><stop id="SvgjsStop5107" stop-opacity="1" stop-color="#ffffff" offset="0" ></stop><stop id="SvgjsStop5108" stop-opacity="0" stop-color="#ffffff" offset="1" ></stop></linearGradient><radialGradient id="SvgjsRadialGradient5171" cx="126.653" cy="88.227" r="13.678" gradientTransform="matrix(-1.0357 0 0 1.0357 204.6606 -3.2718)" gradientUnits="userSpaceOnUse" class="svga-on-canvas-eyesback-gradient-left-0"><stop id="SvgjsStop5172" stop-opacity="1" stop-color="#ffffff" offset="0" ></stop><stop id="SvgjsStop5173" stop-opacity="1" stop-color="#fdfefe" offset="0.544" ></stop><stop id="SvgjsStop5174" stop-opacity="1" stop-color="#f6f8f9" offset="0.74" ></stop><stop id="SvgjsStop5175" stop-opacity="1" stop-color="#eaeff2" offset="0.879" ></stop><stop id="SvgjsStop5176" stop-opacity="1" stop-color="#d9e3e8" offset="0.992" ></stop><stop id="SvgjsStop5177" stop-opacity="1" stop-color="#d8e2e7" offset="1" ></stop></radialGradient><radialGradient id="SvgjsRadialGradient5179" cx="126.654" cy="88.227" r="13.678" gradientTransform="matrix(1.0357 0 0 1.0357 -4.6606 -3.2718)" gradientUnits="userSpaceOnUse" class="svga-on-canvas-eyesback-gradient-right-0"><stop id="SvgjsStop5180" stop-opacity="1" stop-color="#ffffff" offset="0" ></stop><stop id="SvgjsStop5181" stop-opacity="1" stop-color="#fdfefe" offset="0.544" ></stop><stop id="SvgjsStop5182" stop-opacity="1" stop-color="#f6f8f9" offset="0.74" ></stop><stop id="SvgjsStop5183" stop-opacity="1" stop-color="#eaeff2" offset="0.879" ></stop><stop id="SvgjsStop5184" stop-opacity="1" stop-color="#d9e3e8" offset="0.992" ></stop><stop id="SvgjsStop5185" stop-opacity="1" stop-color="#d8e2e7" offset="1" ></stop></radialGradient><radialGradient id="SvgjsRadialGradient5187" cx="126.653" cy="88.227" r="13.678" gradientTransform="matrix(-1.0357 0 0 1.0357 204.6606 -3.2718)" gradientUnits="userSpaceOnUse" class="svga-on-canvas-eyesfront-gradient-left-0"><stop id="SvgjsStop5188" stop-opacity="1" stop-color="#ffffff" offset="0" ></stop><stop id="SvgjsStop5189" stop-opacity="1" stop-color="#fdfefe" offset="0.544" ></stop><stop id="SvgjsStop5190" stop-opacity="1" stop-color="#f6f8f9" offset="0.74" ></stop><stop id="SvgjsStop5191" stop-opacity="1" stop-color="#eaeff2" offset="0.879" ></stop><stop id="SvgjsStop5192" stop-opacity="1" stop-color="#d9e3e8" offset="0.992" ></stop><stop id="SvgjsStop5193" stop-opacity="1" stop-color="#d8e2e7" offset="1" ></stop></radialGradient><radialGradient id="SvgjsRadialGradient5197" cx="123.012" cy="86.371" fx="135.984" fy="86.407" r="18.449" gradientTransform="matrix(0.9996 0.028 0.0231 -0.8278 -47.9747 154.4321)" gradientUnits="userSpaceOnUse" class="svga-on-canvas-eyesfront-gradient-left-3"><stop id="SvgjsStop5198" stop-opacity="1" stop-color="#e1ac8f" offset="0" ></stop><stop id="SvgjsStop5199" stop-opacity="0.3" stop-color="#e1ac8f" offset="0.7" ></stop><stop id="SvgjsStop5200" stop-opacity="0" stop-color="#f0c7b1" offset="1" ></stop></radialGradient><radialGradient id="SvgjsRadialGradient5202" cx="73.035" cy="94.844" r="16.125" gradientTransform="matrix(0.9522 -0.0499 0.0499 0.9514 0.1249 7.7016)" gradientUnits="userSpaceOnUse" class="svga-on-canvas-eyesfront-gradient-left-4"><stop id="SvgjsStop5203" stop-opacity="0" stop-color="#000000" offset="0.9" ></stop><stop id="SvgjsStop5204" stop-opacity="0.3" stop-color="#000000" offset="1" ></stop></radialGradient><radialGradient id="SvgjsRadialGradient5208" cx="126.654" cy="88.227" r="13.678" gradientTransform="matrix(1.0357 0 0 1.0357 -4.6606 -3.2718)" gradientUnits="userSpaceOnUse" class="svga-on-canvas-eyesfront-gradient-right-0"><stop id="SvgjsStop5209" stop-opacity="1" stop-color="#ffffff" offset="0" ></stop><stop id="SvgjsStop5210" stop-opacity="1" stop-color="#fdfefe" offset="0.544" ></stop><stop id="SvgjsStop5211" stop-opacity="1" stop-color="#f6f8f9" offset="0.74" ></stop><stop id="SvgjsStop5212" stop-opacity="1" stop-color="#eaeff2" offset="0.879" ></stop><stop id="SvgjsStop5213" stop-opacity="1" stop-color="#d9e3e8" offset="0.992" ></stop><stop id="SvgjsStop5214" stop-opacity="1" stop-color="#d8e2e7" offset="1" ></stop></radialGradient><radialGradient id="SvgjsRadialGradient5218" cx="123.012" cy="86.371" fx="135.984" fy="86.407" r="18.449" gradientTransform="matrix(-0.9996 0.028 -0.0231 -0.8278 247.9747 154.4321)" gradientUnits="userSpaceOnUse" class="svga-on-canvas-eyesfront-gradient-right-3"><stop id="SvgjsStop5219" stop-opacity="1" stop-color="#e1ac8f" offset="0" ></stop><stop id="SvgjsStop5220" stop-opacity="0.3" stop-color="#e1ac8f" offset="0.7" ></stop><stop id="SvgjsStop5221" stop-opacity="0" stop-color="#f0c7b1" offset="1" ></stop></radialGradient><radialGradient id="SvgjsRadialGradient5223" cx="73.035" cy="94.844" r="16.125" gradientTransform="matrix(-0.9522 -0.0499 -0.0499 0.9514 199.8751 7.7016)" gradientUnits="userSpaceOnUse" class="svga-on-canvas-eyesfront-gradient-right-4"><stop id="SvgjsStop5224" stop-opacity="0" stop-color="#000000" offset="0.9" ></stop><stop id="SvgjsStop5225" stop-opacity="0.3" stop-color="#000000" offset="1" ></stop></radialGradient><linearGradient id="SvgjsLinearGradient5243" x1="100" y1="142" x2="100" y2="139" gradientUnits="userSpaceOnUse" class="svga-on-canvas-mouth-gradient-single-0"><stop id="SvgjsStop5244" stop-opacity="1" stop-color="#e8b9a0" offset="0.1" ></stop><stop id="SvgjsStop5245" stop-opacity="1" stop-color="#e1ac8f" offset="1" ></stop></linearGradient><linearGradient id="SvgjsLinearGradient5266" x1="99.98" y1="171.27" x2="99.98" y2="136.351" gradientUnits="userSpaceOnUse" class="svga-on-canvas-chinshadow-gradient-single-0"><stop id="SvgjsStop5267" stop-opacity="0.8" stop-color="#e1ac8f" offset="0" ></stop><stop id="SvgjsStop5268" stop-opacity="1" stop-color="#c27b55" offset="0.7" ></stop></linearGradient></defs></svg>